#!OML:ASF F:\VICON\USERDATA\INSTALL\rory3\rory3.ASF
:FULLY-SPECIFIED
:DEGREES
45
root -0.18424055093744157 18.212227663477478 3.6171276744295726 -3.5709960880951024 -2.0791672238458756 -7.001447906278678
lfemur -25.83516948351922 2.9183959639080483 -12.48318321405026
ltibia 61.28170455524136
lfoot -4.734298481083582 0.9320237199748358
ltoes -5.126025195104656
rfemur -1.9887926939045535 6.702686202649678 34.106797488282744
rtibia 26.841627083209353
rfoot -17.75566588897825 -7.812385698900127
rtoes 7.623401565788125
lowerback 9.924714384623831 1.284274846391813 5.658517138189535
upperback 0.5074983247424427 2.4882257313877614 2.445200218039712
thorax -4.988106369866636 1.123294043264078 -0.9622438946795072
lowerneck -16.520432439037002 -3.1736652377929753 -1.5989478754238873
upperneck 21.124632518314712 -4.177234011160916 0.9664430644679814
head 9.450812726500398 -1.9748637171048355 0.01042563316588209
lclavicle -2.3181546494702956e-15 5.715114222537796e-16
lhumerus -35.44220530189498 -0.9105847243921512 84.23934471562012
lradius 26.462026701535784
lwrist 6.114430087663438
lhand -26.44629255844261 24.976681756119532
lfingers 7.12502
lthumb 0.11471760167432521 54.95611328543777
rclavicle -2.3181546494702956e-15 5.715114222537796e-16
rhumerus -26.053460006654067 -15.356552000876944 -80.79953007736276
rradius 24.193192987540147
rwrist 4.762077856431277
rhand -17.94931231080277 20.95819882521473
rfingers 7.12502
rthumb 8.319194917097752 -8.855644143986042
46
root -0.16868259083876264 18.149423667502553 3.5480385016219333 -2.8925634093102417 -3.1384372997977255 -7.701977936294012
lfemur -27.967644792170983 1.46192990218151 -11.438836181763433
ltibia 50.98250046342686
lfoot -6.071756668307503 4.282204612940776
ltoes -4.284633964339366
rfemur 1.1735762684513684 7.054107862743623 34.96296441733968
rtibia 24.514535526362877
rfoot -19.809810385832854 -8.15242158370576
rtoes 6.724008848364569
lowerback 9.886425336234339 1.7389687956193471 6.676050848181294
upperback 0.45676644405574396 3.2033264203659986 2.389829991773735
thorax -4.963579292117504 1.4522560165966305 -1.6567045208616236
lowerneck -16.74708836718767 -3.178538290797725 -1.495359613676075
upperneck 20.83716714784147 -4.192303185062921 0.9697461005765746
head 9.38443962733353 -1.9766041914799088 -0.009249019804783681
lclavicle -2.3715398988139822e-15 5.226950411086427e-16
lhumerus -36.590767046124874 -0.3184574765892836 84.2173375146666
lradius 26.365421726993688
lwrist 6.011169093576573
lhand -26.25675762608268 24.96668696428649
lfingers 7.12502
lthumb 0.2977613018464247 54.94340733132142
rclavicle -2.3715398988139822e-15 5.226950411086427e-16
rhumerus -24.728560164872757 -12.917798489810611 -81.57103052451956
rradius 25.613927171092726
rwrist 3.1816628357196386
rhand -18.21842718763581 21.550610334028555
rfingers 7.12502
rthumb 8.059443917985574 -8.273490596080165
47
root -0.1237862907634652 18.075121957397236 4.4597696151831485 -2.081059859311828 -3.8606839875454306 -8.166619505294275
lfemur -28.47995081041331 -0.4889204062690873 -10.127274751268022
ltibia 39.45252620745433
lfoot -6.575954141848909 7.246898318660931
ltoes -3.554728494467053
rfemur 4.592217281095294 7.424004464299331 35.707251537762446
rtibia 22.126607597945046
rfoot -21.546492570308466 -8.397388543087947
rtoes 5.292939387628378
lowerback 9.745484877567538 2.1541334366311644 7.535275196896922
upperback 0.41266488860042694 3.836198117690503 2.3705507516653355
thorax -4.870752455420377 1.746482996852053 -2.125037205275235
lowerneck -16.978656730505566 -3.1817523324587054 -1.4106327133740229
upperneck 20.57460974886471 -4.200799188649049 1.011552056319451
head 9.327136710149832 -1.9759638874526855 -0.007924543176602822
lclavicle -2.0437178643745698e-15 8.245061671696194e-16
lhumerus -37.32336546538293 0.43948299314035477 84.22840904970161
lradius 26.232817281158415
lwrist 5.569223483068107
lhand -26.096486251253868 25.054881268200763
lfingers 7.12502
lthumb 0.45254514201831775 55.02921685792421
rclavicle -2.0437178643745698e-15 8.245061671696194e-16
rhumerus -23.47155020361284 -10.732593846810365 -82.11275972198607
rradius 27.052142783377008
rwrist 1.8121189533947213
rhand -18.46835242188373 22.45911764570404
rfingers 7.12502
rthumb 7.818213123425891 -7.37567584120151
48
root -0.08944089961514218 17.985021768692278 4.628732311133925 -1.3820078746353819 -4.612847742102256 -8.704387009099104
lfemur -29.089672743805657 -2.61153627928742 -9.124864727253115
ltibia 27.83943903509965
lfoot -6.99160936871748 9.21371516023967
ltoes -3.4011174039024734
rfemur 7.46828969072785 7.614208713501587 36.01914782989452
rtibia 19.38249076885977
rfoot -23.431787703038673 -8.580835181012148
rtoes 2.959246453321172
lowerback 9.533842009835825 2.4558610796572977 7.971001816146144
upperback 0.3498467868624005 4.2693993366868295 2.300363605316786
thorax -4.788659322416466 1.9524907478704259 -2.573750057623555
lowerneck -17.189844351489683 -3.2000421934145487 -1.3703937186341784
upperneck 20.31269674295849 -4.233665784325502 1.0417165643730981
head 9.26394869535848 -1.9852929807651742 -0.013441581797486751
lclavicle -2.50709325099273e-15 3.9770935862702243e-16
lhumerus -38.20444968514285 1.0860616568608863 84.15695395674123
lradius 25.636415814098697
lwrist 4.758000044935256
lhand -26.176710902494122 24.82548705627836
lfingers 7.12502
lthumb 0.3750773809526825 54.79892984784202
rclavicle -2.50709325099273e-15 3.9770935862702243e-16
rhumerus -22.579352993620347 -9.323762525339982 -82.59164661918756
rradius 28.17606193240718
rwrist 0.6437833975729461
rhand -18.721658313384197 23.294061215813457
rfingers 7.12502
rthumb 7.573736953080766 -6.549847470679452
49
root -0.0328444139964178 17.903703427192323 5.822494252738181 -0.8406499933674478 -4.939943367333196 -8.830196267922268
lfemur -28.436408603150475 -4.249668873229159 -8.286683544654705
ltibia 19.771988908220322
lfoot -6.278469818465787 9.954981137033121
ltoes -3.4385345769045452
rfemur 10.612909326563624 7.773007382860721 36.369267178823534
rtibia 18.520856020832397
rfoot -24.29197658340935 -7.932061216585782
rtoes 0.3938579671841005
lowerback 9.339837714160302 2.734337144316545 8.348557190796779
upperback 0.2976609491238251 4.655430241448892 2.2649734290902424
thorax -4.6975289283667525 2.1384558566259764 -2.7628539896390145
lowerneck -17.305644086335136 -3.208214792943804 -1.312195019087198
upperneck 20.177964807590797 -4.245224913100678 1.0837972226916561
head 9.23568793685662 -1.9889016764462202 -0.006893897547030903
lclavicle -2.1519381855123493e-15 7.245696096981987e-16
lhumerus -38.726104052015884 2.219180371164821 84.00764436298199
lradius 24.972596938156315
lwrist 3.8901281152334253
lhand -26.28800424604003 24.599960982697432
lfingers 7.12502
lthumb 0.2676058244460896 54.573287862524474
rclavicle -2.1519381855123497e-15 7.245696096981987e-16
rhumerus -21.862340652880246 -8.337544348383025 -82.72303858208457
rradius 29.08036398063549
rwrist 0.14077235396840226
rhand -18.811497908321023 23.96574030356447
rfingers 7.12502
rthumb 7.48702631423093 -5.883070595525877
50
root 0.03166487442552407 17.819852770893522 6.116969078846076 -0.5936118328217164 -5.3512636111947405 -8.859891041985195
lfemur -28.52681860344753 -5.458532702790343 -8.509341373851496
ltibia 13.691050924754009
lfoot -5.702822237129987 9.18160401556655
ltoes -3.905700156209134
rfemur 12.767045316544177 7.629896472683553 35.93576130830242
rtibia 18.684578035982618
rfoot -24.484049902470204 -6.7661420489056185
rtoes -2.460684825788021
lowerback 9.134537765564207 2.911112876913567 8.281427501632413
upperback 0.2296245235690322 4.8640121498432585 2.107689791357134
thorax -4.657403802788346 2.244136490375717 -3.0223601517893135
lowerneck -17.394329785447134 -3.232633530622274 -1.290754269967671
upperneck 20.100080808237223 -4.286527270677874 1.0937254934204672
head 9.216523801200358 -2.003986177436526 -0.013314736174232539
lclavicle -2.668894925036659e-15 2.4802273534015597e-16
lhumerus -39.57221707531066 3.3730981274993344 83.63729000496555
lradius 23.687984137527568
lwrist 2.7573939114272354
lhand -26.413232927689233 24.04554309549013
lfingers 7.12502
lthumb 0.14668172564837423 54.019897146909656
rclavicle -2.668894925036659e-15 2.4802273534015597e-16
rhumerus -21.551311946462313 -8.216468638530726 -82.90999308031263
rradius 29.590208179219243
rwrist -0.23776376092907991
rhand -18.87469239672293 24.165962619324937
rfingers 7.12502
rthumb 7.42603213398867 -5.68404586503978
